<!-- Generated by IcoMoon.io -->
<svg version="1.1" xmlns="http://www.w3.org/2000/svg" width="32" height="32" viewBox="0 0 32 32">
<title>751463</title>
<path d="M11.438 0.037c-3.213 0.394-5.638 1.538-7.75 3.65-1.9 1.9-3.069 4.181-3.544 6.906-0.15 0.869-0.15 2.944 0 3.813 0.475 2.725 1.644 5.006 3.544 6.906s4.181 3.069 6.906 3.544c0.869 0.15 2.944 0.15 3.813 0 1.719-0.3 3.313-0.887 4.581-1.688l0.4-0.25 4.319 4.319c4.663 4.65 4.556 4.556 5.381 4.706 1.656 0.306 3.163-1.2 2.856-2.856-0.15-0.825-0.056-0.719-4.706-5.381l-4.319-4.319 0.25-0.4c0.8-1.269 1.387-2.863 1.688-4.581 0.15-0.869 0.15-2.944 0-3.813-0.475-2.725-1.644-5.006-3.544-6.906-1.887-1.894-4.213-3.087-6.875-3.531-0.569-0.1-2.544-0.175-3-0.119zM14.131 1.375c4.513 0.681 8.181 4.006 9.269 8.406 0.212 0.863 0.281 1.4 0.325 2.394 0.137 3.225-1.288 6.537-3.756 8.713-2.825 2.494-6.544 3.413-10.188 2.512-1.994-0.494-3.75-1.494-5.219-2.962-1.731-1.731-2.8-3.856-3.194-6.344-0.1-0.644-0.1-2.544 0-3.188 0.394-2.488 1.462-4.612 3.194-6.344 1.925-1.925 4.225-2.987 7.094-3.275 0.412-0.044 1.975 0.012 2.475 0.087zM23.087 21.306l0.869 0.875-0.431 0.456c-0.238 0.256-0.637 0.656-0.887 0.894l-0.456 0.431-0.881-0.881-0.875-0.881 0.863-0.875c0.481-0.481 0.881-0.881 0.9-0.881 0.019-0.006 0.425 0.387 0.9 0.863zM30.55 28.837c0.144 0.206 0.169 0.313 0.169 0.663 0 0.337-0.031 0.456-0.156 0.644-0.331 0.488-0.875 0.694-1.438 0.544-0.256-0.069-0.563-0.356-3.169-2.95l-2.881-2.875 0.881-0.894 0.887-0.894 2.769 2.762c1.519 1.512 2.844 2.869 2.938 3z"></path>
<path d="M11.463 2.563c-2.256 0.237-4.4 1.263-6.019 2.881-2.694 2.694-3.619 6.644-2.4 10.244 0.5 1.481 1.3 2.762 2.4 3.869 2.694 2.694 6.644 3.619 10.244 2.4 1.481-0.5 2.762-1.3 3.869-2.4 2.694-2.694 3.619-6.644 2.4-10.244-1-2.963-3.306-5.269-6.269-6.269-1.375-0.469-2.813-0.631-4.225-0.481zM13.65 3.844c1.931 0.256 3.606 1.088 5.013 2.494 3.438 3.438 3.438 8.887 0 12.325s-8.887 3.438-12.325 0c-3.438-3.438-3.438-8.887 0-12.325 1.969-1.963 4.588-2.856 7.313-2.494z"></path>
<path d="M12.275 5.056c-0.2 0.088-0.4 0.375-0.4 0.575 0 0.237 0.275 0.544 0.519 0.581 0.113 0.019 0.475 0.063 0.806 0.094 1.819 0.2 3.444 1.2 4.531 2.787 0.075 0.106 0.256 0.444 0.413 0.75 0.156 0.313 0.337 0.613 0.4 0.662 0.294 0.256 0.775 0.15 0.925-0.213 0.106-0.262 0.050-0.506-0.269-1.137-1.194-2.381-3.625-3.994-6.231-4.125-0.306-0.019-0.625-0.006-0.694 0.025z"></path>
<path d="M19.15 11.938c-0.2 0.081-0.4 0.369-0.4 0.569 0 0.25 0.288 0.55 0.569 0.594 0.194 0.031 0.262 0.006 0.438-0.15s0.212-0.231 0.212-0.45c0-0.219-0.038-0.294-0.206-0.444-0.206-0.181-0.375-0.219-0.613-0.119z"></path>
</svg>
