<svg aria-hidden="true" style="width:0;height:0;position:absolute;overflow:hidden" xmlns="http://www.w3.org/2000/svg"><defs><symbol id="icon-751463" viewBox="0 0 32 32"><path d="M11.438.037C8.225.431 5.8 1.575 3.688 3.687c-1.9 1.9-3.069 4.181-3.544 6.906-.15.869-.15 2.944 0 3.813.475 2.725 1.644 5.006 3.544 6.906s4.181 3.069 6.906 3.544c.869.15 2.944.15 3.813 0 1.719-.3 3.313-.887 4.581-1.688l.4-.25 4.319 4.319c4.663 4.65 4.556 4.556 5.381 4.706 1.656.306 3.163-1.2 2.856-2.856-.15-.825-.056-.719-4.706-5.381l-4.319-4.319.25-.4c.8-1.269 1.387-2.863 1.688-4.581.15-.869.15-2.944 0-3.813-.475-2.725-1.644-5.006-3.544-6.906C19.426 1.793 17.1.6 14.438.156c-.569-.1-2.544-.175-3-.119zm2.693 1.338c4.513.681 8.181 4.006 9.269 8.406.212.863.281 1.4.325 2.394.137 3.225-1.288 6.537-3.756 8.713-2.825 2.494-6.544 3.413-10.188 2.512a11.059 11.059 0 0 1-5.219-2.962c-1.731-1.731-2.8-3.856-3.194-6.344-.1-.644-.1-2.544 0-3.188.394-2.488 1.462-4.612 3.194-6.344 1.925-1.925 4.225-2.987 7.094-3.275.412-.044 1.975.012 2.475.087zm8.956 19.931.869.875-.431.456c-.238.256-.637.656-.887.894l-.456.431-.881-.881-.875-.881.863-.875c.481-.481.881-.881.9-.881.019-.006.425.387.9.863zm7.463 7.531c.144.206.169.313.169.663 0 .337-.031.456-.156.644-.331.488-.875.694-1.438.544-.256-.069-.563-.356-3.169-2.95l-2.881-2.875.881-.894.887-.894 2.769 2.762c1.519 1.512 2.844 2.869 2.938 3z"/><path d="M11.463 2.563a10.046 10.046 0 0 0-6.019 2.881 9.94 9.94 0 0 0-2.4 10.244 9.906 9.906 0 0 0 2.4 3.869 9.94 9.94 0 0 0 10.244 2.4 9.906 9.906 0 0 0 3.869-2.4 9.94 9.94 0 0 0 2.4-10.244 9.958 9.958 0 0 0-6.269-6.269 9.85 9.85 0 0 0-4.225-.481zm2.187 1.281c1.931.256 3.606 1.088 5.013 2.494 3.438 3.438 3.438 8.887 0 12.325s-8.887 3.438-12.325 0C2.9 15.225 2.9 9.776 6.338 6.338c1.969-1.963 4.588-2.856 7.313-2.494z"/><path d="M12.275 5.056c-.2.088-.4.375-.4.575 0 .237.275.544.519.581.113.019.475.063.806.094 1.819.2 3.444 1.2 4.531 2.787.075.106.256.444.413.75.156.313.337.613.4.662.294.256.775.15.925-.213.106-.262.05-.506-.269-1.137-1.194-2.381-3.625-3.994-6.231-4.125-.306-.019-.625-.006-.694.025zM19.15 11.938c-.2.081-.4.369-.4.569 0 .25.288.55.569.594.194.031.262.006.438-.15s.212-.231.212-.45-.038-.294-.206-.444c-.206-.181-.375-.219-.613-.119z"/></symbol></defs></svg>